<svg xmlns="http://www.w3.org/2000/svg" viewBox="0 0 96 96" role="img" aria-label="BatchMark">
  <defs>
    <linearGradient id="markGreen" x1="12" y1="12" x2="84" y2="84" gradientUnits="userSpaceOnUse">
      <stop stop-color="#2f7652"/>
      <stop offset="1" stop-color="#174c38"/>
    </linearGradient>
  </defs>
  <rect x="8" y="8" width="80" height="80" rx="22" fill="url(#markGreen)"/>
  <path d="M68 8h-8c0 8 5 13 13 13v-8c-3 0-5-2-5-5Z" fill="#b78a2b"/>
  <path d="M27 29h20c8 0 13 4 13 11 0 4-2 8-6 10 5 2 8 6 8 12 0 8-6 13-15 13H27V29Zm10 9v9h9c3 0 5-2 5-5 0-2-2-4-5-4h-9Zm0 18v10h10c3 0 5-2 5-5s-2-5-6-5h-9Z" fill="#ffffff"/>
  <g fill="#dff1e9">
    <rect x="67" y="30" width="6" height="6" rx="1.2"/>
    <rect x="76" y="30" width="6" height="6" rx="1.2"/>
    <rect x="67" y="39" width="6" height="6" rx="1.2"/>
    <rect x="76" y="48" width="6" height="6" rx="1.2"/>
    <rect x="67" y="57" width="6" height="6" rx="1.2"/>
    <rect x="76" y="57" width="6" height="6" rx="1.2"/>
  </g>
  <rect x="21" y="78" width="42" height="5" rx="2.5" fill="#b78a2b"/>
</svg>
